<svg width="85" height="526" viewBox="0 0 85 526" fill="none" xmlns="http://www.w3.org/2000/svg">
<rect x="27.8962" y="7" width="29" height="400" fill="#825A2C" stroke="black" stroke-width="15"/>
<path d="M67.2658 423.075L33.1325 440.142C24.7533 443.991 14.8322 440.488 10.7269 432.231C6.62171 423.975 9.81704 413.95 17.9432 409.592L52.0765 392.526C57.5605 389.585 64.2106 389.862 69.431 393.249C74.6514 396.636 77.6146 402.595 77.1641 408.802C76.7135 415.008 72.9207 420.478 67.2658 423.075Z" fill="#A0522D" stroke="black" stroke-width="15"/>
<path d="M67.2658 499.529L33.1325 516.595C24.7533 520.444 14.8322 516.941 10.7269 508.685C6.62171 500.428 9.81704 490.404 17.9432 486.046L52.0765 468.979C57.5605 466.039 64.2106 466.316 69.431 469.702C74.6514 473.089 77.6146 479.049 77.1641 485.256C76.7135 491.462 72.9207 496.931 67.2658 499.529Z" fill="#A0522D" stroke="black" stroke-width="15"/>
<path d="M67.2658 461.219L33.1325 478.286C27.6485 481.227 20.9984 480.95 15.778 477.563C10.5576 474.176 7.5944 468.216 8.04493 462.01C8.49547 455.803 12.2883 450.334 17.9432 447.736L52.0765 430.67C57.5605 427.729 64.2106 428.006 69.431 431.393C74.6514 434.78 77.6146 440.739 77.1641 446.946C76.7135 453.152 72.9206 458.622 67.2658 461.219Z" fill="#825A2C" stroke="black" stroke-width="15"/>
</svg>
