<svg width="52" height="78" viewBox="0 0 52 78" fill="none" xmlns="http://www.w3.org/2000/svg">
<path d="M46.938 54.5895C48.947 63.2516 45.7022 71.3076 39.2335 73.7179C38.8346 73.8417 38.4269 73.939 38.012 74.0095C32.7616 74.9475 26.9763 72.0456 23.0973 66.5283C17.7025 59.0823 10.7694 45.9935 4.13192 23.4592C13.4011 21.2833 21.5117 15.8854 27.5597 7.86697C28.5748 6.32447 29.3306 4.53437 29.7949 2.57295C36.971 19.4404 42.7192 36.8821 46.938 54.5895V54.5895Z" fill="#065760" stroke="black"/>
<path d="M29.9044 4.10173C36.7997 20.5159 42.3437 37.4649 46.4418 54.6654C48.4161 63.1778 45.2035 70.9446 39.0369 73.2523C38.7572 73.3387 38.4732 73.4119 38.185 73.4707L37.8911 73.5252L37.8824 73.5269C35.93 73.8939 33.8455 73.6844 31.7884 72.9124C34.8099 69.0269 35.8924 63.3658 34.7682 57.5665L34.6474 56.9789L34.6461 56.9742C31.3746 42.7793 26.9922 28.7603 21.5657 15.1179C23.8412 13.3161 25.8778 11.1544 27.6302 8.6761L27.9899 8.15573L27.9937 8.15104C28.7936 6.93552 29.4341 5.57314 29.9044 4.10173Z" fill="#065760" stroke="black"/>
<path d="M46.938 54.5895C48.947 63.2516 45.7022 71.3076 39.2335 73.7179C38.8346 73.8417 38.4269 73.939 38.012 74.0095C32.7616 74.9475 26.9763 72.0456 23.0973 66.5283C17.7025 59.0823 10.7694 45.9935 4.13192 23.4592C13.4011 21.2833 21.5117 15.8854 27.5597 7.86697C28.5748 6.32447 29.3306 4.53437 29.7949 2.57295C36.971 19.4404 42.7192 36.8821 46.938 54.5895V54.5895Z" fill="#065760" stroke="black"/>
</svg>
